<svg xmlns="http://www.w3.org/2000/svg" viewBox="0 0 64 64" id="tree">
  <path d="M56 59H38.811c-.881-4.113-1.625-8.782-2.221-13.93.302.026.6.06.911.06 4.095 0 7.69-2.457 8.99-6.056a8.06 8.06 0 0 0 .776-.138c2.205-.489 4.043-1.822 5.104-3.686C55.156 34.166 57 31.594 57 28.729c0-2.274-1.181-4.412-3.123-5.73A12.28 12.28 0 0 0 54 21.27c0-6.814-5.28-12.492-12.393-13.458C40.588 4.946 37.763 3 34.5 3c-1.967 0-3.852.732-5.256 2.025-5.257-.921-10.054 2.365-11.048 7.01-2.392.953-4.194 2.888-4.886 5.236-3.694.92-6.311 4.076-6.311 7.729 0 2.786 1.519 5.334 4.005 6.79.146 3.778 3.452 6.81 7.495 6.81h.021c1.226 3.904 4.528 6.9 8.711 7.966-.564 4.562-1.247 8.72-2.043 12.434H8a1 1 0 1 0 0 2h48a1 1 0 1 0 0-2ZM20.243 37.324a1 1 0 0 0-1.094-.767 5.555 5.555 0 0 1-.649.043c-3.032 0-5.5-2.274-5.5-5.07 0-.081.009-.161.016-.241a.999.999 0 0 0-.557-.986C10.325 29.258 9 27.226 9 25.001c0-2.888 2.229-5.366 5.3-5.895.407-.07.729-.384.811-.789.424-2.119 2.062-3.876 4.274-4.584a1 1 0 0 0 .686-.815c.478-3.447 3.672-6.047 7.43-6.047.607 0 1.212.07 1.849.215a.994.994 0 0 0 .954-.294c1.058-1.138 2.588-1.791 4.197-1.791 2.592 0 4.8 1.631 5.368 3.967a1 1 0 0 0 .88.759c6.415.593 11.252 5.556 11.252 11.544 0 .664-.066 1.332-.202 2.042a1 1 0 0 0 .503 1.065c1.665.911 2.699 2.578 2.699 4.353 0 2.129-1.464 4.042-3.643 4.76a.997.997 0 0 0-.583.505c-.751 1.511-2.188 2.6-3.946 2.99a5.732 5.732 0 0 1-1.11.146c-.443.01-.827.311-.943.739-.835 3.097-3.826 5.26-7.274 5.26a8.36 8.36 0 0 1-1.135-.083c-.061-.574-.122-1.146-.179-1.731a.994.994 0 0 1 .217-.72l6.198-7.754a2.491 2.491 0 0 0-.184-3.325l-.005-.005a2.498 2.498 0 0 0-3.171-.298L35.447 31.8a262.979 262.979 0 0 1-.423-10.834C34.995 19.331 33.639 18 32.002 18s-2.993 1.33-3.022 2.965a255.6 255.6 0 0 1-.269 7.981l-3.943-2.72a2.498 2.498 0 0 0-3.368 3.615l6.446 8.063a.998.998 0 0 1 .218.707 222.417 222.417 0 0 1-.59 5.953c-3.629-1.015-6.418-3.754-7.229-7.242ZM27.239 59c1.212-5.767 2.158-12.561 2.815-20.217a2.985 2.985 0 0 0-.647-2.126l-6.447-8.064a.496.496 0 0 1 .671-.719l5.417 3.735a1.001 1.001 0 0 0 1.566-.768c.233-4.231.327-7.687.364-9.841.01-.561.459-1 1.022-1s1.013.44 1.022 1c.039 2.275.16 6.948.536 12.68a1.002 1.002 0 0 0 1.561.761l5.247-3.574a.5.5 0 0 1 .632.059l.005.005a.495.495 0 0 1 .036.661l-6.199 7.755a2.983 2.983 0 0 0-.645 2.163c.639 6.542 1.501 12.418 2.565 17.489h-9.521Z"></path>
</svg>
